<?xml version="1.0" standalone="no"?>
<!DOCTYPE svg PUBLIC "-//W3C//DTD SVG 20010904//EN"
 "http://www.w3.org/TR/2001/REC-SVG-20010904/DTD/svg10.dtd">
<svg version="1.0" xmlns="http://www.w3.org/2000/svg"
 width="520.000000pt" height="520.000000pt" viewBox="0 0 520.000000 520.000000"
 preserveAspectRatio="xMidYMid meet">
<metadata>
Created by potrace 1.14, written by Peter Selinger 2001-2017
</metadata>
<g transform="translate(0.000000,520.000000) scale(0.100000,-0.100000)"
fill="#000000" stroke="none">
<path d="M2408 5195 c-1 -2 -32 -6 -68 -9 -263 -23 -587 -113 -835 -232 -625
-299 -1106 -836 -1325 -1479 -50 -147 -87 -291 -104 -405 -3 -19 -8 -46 -10
-59 -7 -32 -20 -162 -18 -183 0 -10 -3 -18 -8 -18 -4 0 -4 -16 0 -34 4 -19 5
-37 3 -40 -8 -8 -7 -202 1 -215 4 -6 2 -11 -4 -11 -6 0 -8 -5 -3 -12 11 -19
12 -37 2 -44 -6 -4 -6 -10 0 -17 5 -7 12 -46 15 -87 4 -41 9 -88 12 -105 3
-16 7 -41 9 -55 1 -14 4 -25 5 -25 3 0 6 -16 13 -68 2 -15 7 -30 10 -34 4 -3
1 -13 -6 -21 -9 -13 -9 -14 1 -8 8 4 13 1 14 -11 1 -10 2 -25 3 -33 1 -8 7
-25 14 -38 7 -13 10 -30 7 -38 -3 -9 -1 -12 4 -9 9 5 15 -23 11 -47 0 -5 4 -8
10 -8 7 0 9 -10 7 -25 -3 -13 -2 -22 3 -20 7 5 25 -52 21 -67 -1 -5 3 -8 9 -8
5 0 7 -4 4 -10 -3 -5 -1 -10 6 -10 7 0 4 -6 -7 -14 -13 -10 -15 -14 -4 -13 8
1 15 -1 15 -4 0 -3 7 -14 15 -24 14 -17 13 -18 -3 -12 -11 4 -16 3 -12 -3 3
-6 13 -10 22 -10 10 0 14 -6 10 -20 -3 -11 -1 -17 4 -14 10 6 29 -36 22 -48
-2 -5 1 -8 7 -8 7 0 9 -7 6 -16 -3 -8 -2 -13 3 -10 9 6 44 -65 44 -89 0 -8 4
-12 9 -9 4 3 8 -1 8 -10 0 -8 4 -16 9 -18 5 -2 11 -10 13 -18 2 -8 8 -19 13
-23 6 -6 6 -10 -2 -14 -7 -2 -13 -9 -13 -15 0 -7 5 -6 14 1 12 10 17 8 25 -7
6 -11 7 -22 4 -26 -3 -3 -1 -6 6 -6 7 0 11 -7 8 -14 -4 -10 -1 -13 9 -9 9 3
14 -1 14 -14 0 -10 9 -24 21 -31 17 -11 18 -16 8 -28 -10 -12 -9 -13 4 -8 10
3 20 -3 28 -18 6 -13 15 -25 18 -28 19 -14 51 -70 39 -67 -7 2 -3 -1 10 -7 13
-6 20 -16 17 -24 -2 -7 0 -10 5 -7 6 3 10 -3 10 -14 0 -12 5 -21 11 -21 5 0 7
4 4 10 -3 5 -4 10 -1 10 10 0 55 -73 50 -82 -3 -4 3 -5 12 -1 14 5 16 3 11
-11 -5 -11 -3 -16 5 -14 11 4 76 -61 96 -97 6 -11 12 -15 12 -8 0 6 13 0 28
-15 22 -22 26 -31 18 -47 -8 -17 -7 -18 5 -8 12 10 21 8 43 -6 17 -12 24 -21
17 -25 -6 -4 -11 -13 -10 -19 0 -9 2 -9 6 1 2 6 9 12 15 12 6 0 8 -6 5 -14 -4
-9 5 -21 20 -31 14 -10 22 -12 19 -6 -14 22 13 10 53 -23 22 -18 37 -36 34
-40 -4 -3 1 -6 10 -6 9 0 17 -5 17 -11 0 -5 4 -7 10 -4 5 3 10 2 10 -4 0 -5
-6 -12 -12 -15 -7 -3 -2 -3 12 1 22 5 23 4 12 -10 -10 -12 -10 -17 -1 -23 7
-4 9 -3 6 3 -4 6 0 16 8 23 11 9 15 9 15 1 0 -6 11 -16 25 -23 13 -6 22 -16
18 -21 -4 -6 0 -8 9 -5 8 4 22 -2 32 -13 9 -11 20 -17 25 -14 5 2 12 -2 15
-11 4 -10 2 -13 -6 -8 -6 4 -8 3 -5 -4 4 -5 16 -8 27 -5 12 3 20 0 20 -6 0 -7
4 -10 9 -7 5 3 11 -4 15 -16 4 -17 8 -20 17 -11 8 8 20 6 45 -9 19 -11 34 -24
34 -30 0 -5 4 -7 9 -4 11 7 91 -32 91 -45 0 -6 4 -8 9 -5 19 12 42 -6 35 -28
-6 -20 -5 -20 8 -3 13 17 17 17 48 4 61 -26 105 -42 112 -39 5 1 8 -3 8 -9 0
-6 6 -9 14 -6 8 3 20 -1 26 -8 7 -8 16 -13 20 -10 7 4 45 -5 90 -22 8 -4 20
-5 27 -4 16 2 26 -16 13 -24 -5 -3 -10 -1 -10 6 0 7 -3 9 -7 6 -3 -4 -12 -2
-20 4 -9 8 -13 8 -13 1 0 -6 10 -14 23 -18 34 -12 48 -13 42 -4 -3 5 -1 11 5
15 5 3 10 -1 10 -10 0 -9 5 -13 10 -10 6 4 8 10 5 15 -3 5 10 4 27 -2 18 -6
39 -13 47 -15 8 -2 11 -10 7 -20 -6 -15 -5 -16 11 -1 27 23 55 20 47 -6 -6
-21 -6 -21 11 -1 14 17 16 18 11 2 -3 -11 -2 -16 4 -12 6 3 10 1 10 -6 0 -8 5
-6 13 4 18 25 86 10 71 -15 -4 -7 -2 -8 5 -4 6 4 9 12 6 17 -8 11 31 6 42 -6
5 -4 2 -5 -4 -1 -7 4 -13 2 -13 -4 0 -7 6 -10 14 -7 7 3 18 1 23 -4 6 -6 14
-4 23 6 7 8 20 15 29 15 13 -1 13 -3 -4 -16 -20 -16 -19 -16 4 -9 13 4 21 3
18 -2 -3 -5 3 -9 14 -9 18 0 18 2 5 12 -19 14 -21 25 -3 21 6 -1 18 -11 25
-22 9 -13 12 -15 8 -3 -6 22 4 30 21 17 9 -8 17 -8 26 0 8 6 17 8 21 4 11 -11
228 -11 250 0 13 6 16 6 12 -2 -8 -12 6 -15 18 -4 3 4 20 8 36 9 21 2 27 -1
23 -12 -4 -11 -9 -12 -19 -3 -9 7 -14 8 -14 1 0 -20 29 -20 42 -1 8 13 27 22
53 24 22 2 58 7 80 10 22 4 49 7 60 9 12 1 26 6 33 10 7 4 12 2 12 -3 0 -6 -4
-11 -10 -11 -5 0 -10 -4 -10 -10 0 -18 18 -10 25 10 4 11 10 18 15 15 5 -3 11
-1 14 4 4 5 17 8 31 6 14 -1 28 2 31 7 3 5 15 6 26 2 15 -5 19 -3 13 7 -5 8
-5 11 -1 7 4 -3 25 0 47 7 21 8 39 12 39 8 0 -3 7 0 15 7 10 9 15 9 15 1 0
-15 26 -14 42 3 19 18 82 50 74 37 -4 -6 -2 -11 4 -11 6 0 8 -6 4 -12 -4 -7 2
-5 13 5 11 9 23 14 28 10 4 -5 5 -2 1 5 -6 10 -11 10 -22 1 -10 -8 -14 -8 -14
0 0 6 1 11 3 11 1 0 26 9 55 19 29 11 50 16 47 11 -3 -5 -1 -12 5 -15 6 -4 10
-3 9 2 -3 18 2 33 11 33 5 0 7 -8 4 -18 -3 -10 0 -8 7 4 11 21 40 41 69 46 8
2 21 9 28 15 10 10 18 10 35 1 19 -10 20 -9 10 4 -11 12 -7 17 20 29 17 8 44
15 59 14 15 0 24 3 21 8 -3 4 -12 6 -20 3 -8 -3 -11 -1 -8 4 9 14 42 12 48 -2
4 -10 6 -10 6 0 1 7 6 10 13 6 7 -4 8 -3 4 5 -4 6 -12 9 -17 6 -5 -4 -9 -1 -9
6 0 6 8 9 20 6 11 -3 23 -1 26 4 3 5 10 6 16 3 7 -4 8 -2 4 5 -6 9 -11 9 -22
0 -10 -8 -14 -8 -14 0 0 10 13 15 33 12 4 0 7 3 7 9 0 5 8 6 17 3 12 -5 15 -2
10 10 -3 9 -2 17 3 17 6 0 10 -6 11 -12 0 -7 4 -4 8 6 4 10 36 36 71 58 35 21
60 38 55 38 -4 0 4 9 18 20 14 11 29 20 35 20 5 0 17 9 27 20 10 12 24 19 31
16 8 -3 11 1 7 10 -3 9 1 14 12 14 10 0 13 -5 9 -12 -4 -7 -3 -8 5 -4 8 6 9
12 2 20 -15 18 -1 28 17 13 13 -9 14 -9 8 1 -4 6 -2 12 3 12 6 0 10 4 8 10 -3
14 66 71 81 65 6 -2 12 0 12 5 0 6 -6 10 -12 10 -9 0 -8 4 2 10 20 13 33 12
24 -2 -4 -7 -3 -8 4 -4 6 4 9 13 6 20 -3 7 13 29 35 48 22 19 38 38 34 42 -12
12 23 6 37 -6 12 -11 12 -10 1 4 -10 13 -10 17 1 21 7 2 4 3 -6 1 -17 -3 -16
1 7 22 15 14 33 22 40 18 9 -5 9 -4 0 6 -9 10 -6 18 13 37 14 14 30 21 37 17
9 -5 9 -4 0 6 -18 20 25 63 47 47 13 -11 13 -10 0 7 -13 16 -12 20 9 37 13 11
20 19 15 19 -4 0 1 7 12 16 10 8 12 13 4 9 -8 -4 -5 2 7 13 12 11 19 22 16 26
-4 3 -1 6 6 6 7 0 10 4 7 9 -3 4 3 16 14 26 11 10 20 24 20 32 0 7 7 16 15 19
8 4 13 9 10 13 -2 4 3 18 12 30 12 19 17 20 25 10 8 -11 9 -10 4 4 -7 21 3 49
14 42 5 -3 12 0 16 6 4 8 3 9 -4 5 -7 -4 -12 -1 -12 8 0 8 8 20 18 25 9 6 14
11 9 11 -4 0 0 14 8 30 9 17 20 28 24 25 5 -3 7 4 4 15 -3 11 0 20 6 20 6 0
10 3 9 8 -4 14 26 81 34 76 4 -3 5 3 1 12 -4 11 -3 15 4 11 7 -5 9 1 5 15 -4
15 -2 19 7 14 8 -5 12 -3 10 5 -3 26 1 40 10 35 5 -4 7 3 4 14 -3 12 0 20 6
20 7 0 9 5 6 10 -8 14 4 52 15 45 4 -3 6 4 3 15 -3 11 0 20 6 20 6 0 8 7 4 17
-4 10 -2 14 4 10 6 -4 8 3 5 20 -3 17 -1 24 6 19 6 -4 8 2 5 14 -3 11 0 20 6
20 5 0 8 7 5 15 -4 8 -2 15 4 15 6 0 8 10 4 22 -3 12 -1 19 4 15 5 -3 9 7 8
21 0 15 3 41 7 57 5 17 10 41 13 55 26 152 27 158 41 303 2 26 7 52 10 57 3 5
2 11 -3 14 -4 2 -6 23 -4 45 3 27 8 39 16 34 6 -4 5 0 -2 9 -9 11 -13 41 -12
85 1 37 1 70 0 73 -1 3 -3 28 -5 56 -2 50 -13 150 -20 185 -2 9 -6 40 -10 70
-7 52 -66 299 -84 349 -5 14 -21 59 -36 100 -174 483 -515 923 -945 1220 -151
104 -177 120 -325 193 -206 102 -447 184 -650 221 -16 3 -39 8 -50 10 -11 2
-47 7 -80 11 -32 4 -68 9 -80 12 -23 5 -461 13 -467 8z m-1438 -4535 c0 -5 -7
-7 -15 -4 -8 4 -12 10 -9 15 6 11 24 2 24 -11z m2405 -470 c-3 -5 -11 -10 -16
-10 -6 0 -7 5 -4 10 3 6 11 10 16 10 6 0 7 -4 4 -10z m-1041 -111 c-6 -11 -24
-2 -24 11 0 5 7 7 15 4 8 -4 12 -10 9 -15z"/>
<path d="M460 1200 c0 -5 5 -10 11 -10 5 0 7 5 4 10 -3 6 -8 10 -11 10 -2 0
-4 -4 -4 -10z"/>
<path d="M490 1161 c0 -6 4 -13 10 -16 6 -3 7 1 4 9 -7 18 -14 21 -14 7z"/>
<path d="M721 873 c7 -12 15 -20 18 -17 3 2 -3 12 -13 22 -17 16 -18 16 -5 -5z"/>
<path d="M816 767 c3 -8 11 -14 19 -14 20 0 19 4 -5 17 -15 8 -18 8 -14 -3z"/>
<path d="M4310 720 c0 -5 5 -10 10 -10 6 0 10 5 10 10 0 6 -4 10 -10 10 -5 0
-10 -4 -10 -10z"/>
<path d="M876 712 c-2 -4 4 -8 14 -8 10 0 16 4 14 8 -3 4 -9 8 -14 8 -5 0 -11
-4 -14 -8z"/>
<path d="M4213 625 c0 -8 4 -12 9 -9 5 3 6 10 3 15 -9 13 -12 11 -12 -6z"/>
<path d="M998 623 c6 -2 12 -9 12 -14 0 -6 -5 -7 -12 -3 -7 5 -8 3 -3 -5 5 -9
11 -9 17 -3 12 12 2 32 -15 31 -9 0 -9 -2 1 -6z"/>
<path d="M1026 583 c-6 -14 -5 -15 5 -6 7 7 10 15 7 18 -3 3 -9 -2 -12 -12z"/>
<path d="M4140 578 c-11 -22 -10 -22 4 -4 13 17 18 17 33 5 16 -13 17 -12 4 4
-18 23 -28 22 -41 -5z"/>
<path d="M4046 515 c-11 -8 -15 -15 -9 -15 7 0 15 5 18 10 5 8 12 7 23 -2 15
-12 16 -11 3 5 -7 9 -14 17 -15 17 0 0 -10 -7 -20 -15z"/>
<path d="M1149 483 c-13 -17 -13 -17 6 -3 11 8 22 16 24 17 2 2 0 3 -6 3 -6 0
-17 -8 -24 -17z"/>
<path d="M4007 472 c3 -7 9 -10 12 -5 3 4 10 11 15 15 4 4 -1 6 -12 5 -12 -1
-18 -6 -15 -15z"/>
<path d="M1230 440 c0 -5 5 -10 11 -10 5 0 7 5 4 10 -3 6 -8 10 -11 10 -2 0
-4 -4 -4 -10z"/>
<path d="M1286 403 c-6 -14 -5 -15 5 -6 7 7 10 15 7 18 -3 3 -9 -2 -12 -12z"/>
<path d="M3777 353 c-4 -3 -7 -11 -7 -17 0 -6 5 -5 12 2 6 6 9 14 7 17 -3 3
-9 2 -12 -2z"/>
<path d="M1450 336 c0 -2 8 -10 18 -17 15 -13 16 -12 3 4 -13 16 -21 21 -21
13z"/>
<path d="M3715 319 c-4 -6 -5 -12 -2 -15 2 -3 7 2 10 11 7 17 1 20 -8 4z"/>
<path d="M1490 310 c0 -5 5 -10 11 -10 5 0 7 5 4 10 -3 6 -8 10 -11 10 -2 0
-4 -4 -4 -10z"/>
<path d="M3655 290 c-25 -16 -26 -19 -8 -17 12 0 19 5 17 9 -5 8 11 12 29 9 5
-1 6 3 2 9 -8 13 -5 13 -40 -10z"/>
<path d="M1551 274 c0 -11 3 -14 6 -6 3 7 2 16 -1 19 -3 4 -6 -2 -5 -13z"/>
<path d="M1615 251 c-3 -5 -2 -12 3 -15 5 -3 9 1 9 9 0 17 -3 19 -12 6z"/>
<path d="M3546 242 c-3 -5 1 -9 9 -9 8 0 12 4 9 9 -3 4 -7 8 -9 8 -2 0 -6 -4
-9 -8z"/>
<path d="M1677 234 c-4 -4 -7 -11 -7 -15 0 -9 27 -5 37 6 4 4 3 5 -4 2 -6 -4
-13 -2 -15 4 -2 5 -7 7 -11 3z"/>
<path d="M3516 227 c3 -10 9 -15 12 -12 3 3 0 11 -7 18 -10 9 -11 8 -5 -6z"/>
<path d="M1759 193 c-7 -10 -10 -15 -5 -11 5 4 18 3 30 -3 19 -9 19 -9 4 4
-10 8 -15 17 -11 20 3 4 4 7 1 7 -3 0 -12 -8 -19 -17z"/>
<path d="M3434 196 c1 -8 5 -18 8 -22 4 -3 5 1 4 10 -1 8 -5 18 -8 22 -4 3 -5
-1 -4 -10z"/>
<path d="M1813 180 c2 -8 10 -14 17 -12 8 2 10 -3 7 -13 -9 -21 0 -19 13 4 8
16 7 19 -8 17 -9 -2 -21 2 -25 8 -6 7 -7 6 -4 -4z"/>
<path d="M3295 160 c-3 -5 -1 -10 4 -10 6 0 11 5 11 10 0 6 -2 10 -4 10 -3 0
-8 -4 -11 -10z"/>
<path d="M3270 151 c0 -6 4 -13 10 -16 6 -3 7 1 4 9 -7 18 -14 21 -14 7z"/>
<path d="M3195 131 c-3 -5 -2 -12 3 -15 5 -3 9 1 9 9 0 17 -3 19 -12 6z"/>
<path d="M2028 123 c10 -4 10 -8 0 -21 -9 -12 -6 -11 10 2 12 11 22 20 22 20
0 1 -10 2 -22 3 -13 0 -17 -1 -10 -4z"/>
<path d="M3150 118 c0 -6 3 -8 7 -5 3 4 13 1 22 -6 14 -11 14 -10 2 6 -15 20
-31 22 -31 5z"/>
<path d="M3220 126 c0 -2 7 -6 15 -10 8 -3 15 -1 15 4 0 6 -7 10 -15 10 -8 0
-15 -2 -15 -4z"/>
<path d="M2095 110 c-3 -5 -1 -10 4 -10 6 0 11 5 11 10 0 6 -2 10 -4 10 -3 0
-8 -4 -11 -10z"/>
<path d="M3035 99 c-4 -6 -4 -13 -1 -16 3 -4 6 -1 6 6 0 7 5 9 12 5 7 -4 8 -3
4 4 -9 15 -13 15 -21 1z"/>
<path d="M3110 100 c0 -5 5 -10 11 -10 5 0 7 5 4 10 -3 6 -8 10 -11 10 -2 0
-4 -4 -4 -10z"/>
<path d="M2185 90 c-3 -6 1 -7 9 -4 18 7 21 14 7 14 -6 0 -13 -4 -16 -10z"/>
<path d="M2221 84 c0 -11 3 -14 6 -6 3 7 2 16 -1 19 -3 4 -6 -2 -5 -13z"/>
<path d="M2950 85 c-9 -10 -9 -15 -1 -15 6 0 11 5 11 11 0 8 6 7 18 -2 15 -13
16 -12 3 4 -16 21 -16 21 -31 2z"/>
<path d="M2990 96 c0 -2 7 -9 15 -16 13 -11 14 -10 9 4 -5 14 -24 23 -24 12z"/>
<path d="M2915 81 c-3 -5 -2 -12 3 -15 5 -3 9 1 9 9 0 17 -3 19 -12 6z"/>
<path d="M2492 76 c4 -5 0 -15 -10 -23 -15 -13 -15 -13 4 -4 12 6 24 8 27 5 3
-3 14 -1 24 6 17 11 17 11 -1 6 -10 -4 -26 -1 -35 6 -9 7 -13 8 -9 4z"/>
<path d="M2866 63 c-6 -14 -5 -15 5 -6 7 7 10 15 7 18 -3 3 -9 -2 -12 -12z"/>
<path d="M2595 59 c-3 -4 2 -6 10 -5 21 3 28 13 10 13 -9 0 -18 -4 -20 -8z"/>
<path d="M2716 61 c-3 -4 6 -7 19 -7 14 0 22 2 19 5 -8 8 -34 10 -38 2z"/>
<path d="M2446 43 c-6 -14 -5 -15 5 -6 7 7 10 15 7 18 -3 3 -9 -2 -12 -12z"/>
<path d="M2570 51 c0 -6 4 -13 10 -16 6 -3 7 1 4 9 -7 18 -14 21 -14 7z"/>
<path d="M2691 44 c0 -11 3 -14 6 -6 3 7 2 16 -1 19 -3 4 -6 -2 -5 -13z"/>
<path d="M2775 49 c-4 -6 -5 -12 -2 -15 2 -3 7 2 10 11 7 17 1 20 -8 4z"/>
</g>
</svg>
